# xmcd
#
# Track frame offsets:
#	150
#	16087
#	35589
#	54345
#	69792
#	86822
#	109916
#	127847
#	148631
#	164893
#	180724
#	196553
#	213352
#
# Disc length: 3135 seconds
#
# Revision: 0
# Processed by: cddbd v1.5.2PL0 Copyright (c) Steve Scherf et al.
# Submitted via: audiograbber 1.83.01
#
DISCID=ad0c3d0d
DTITLE=Angelique Kidjo - Djin Djin
DYEAR=2007
DGENRE=
TTITLE0=Ae ae
TTITLE1=Djin djin
TTITLE2=Gimme shelter
TTITLE3=Salala
TTITLE4=Sen amou (c'est l'amour)
TTITLE5=Pearls
TTITLE6=Sedjedo
TTITLE7=Papa
TTITLE8=Arouna
TTITLE9=Awan n'la
TTITLE10=Emma
TTITLE11=Mama golo papa
TTITLE12=Lonlon (Ravel's Bolero)
EXTD=
EXTT0=
EXTT1=
EXTT2=
EXTT3=
EXTT4=
EXTT5=
EXTT6=
EXTT7=
EXTT8=
EXTT9=
EXTT10=
EXTT11=
EXTT12=
PLAYORDER=
